<?xml version="1.0" encoding="UTF-8"?>
<!DOCTYPE svg PUBLIC "-//W3C//DTD SVG 1.1//EN" "http://www.w3.org/Graphics/SVG/1.1/DTD/svg11.dtd">
<!-- Creator: CorelDRAW (OEM Version) -->
<svg xmlns="http://www.w3.org/2000/svg" xml:space="preserve" width="3.941in" height="0.659in" version="1.1" style="shape-rendering:geometricPrecision; text-rendering:geometricPrecision; image-rendering:optimizeQuality; fill-rule:evenodd; clip-rule:evenodd"
viewBox="0 0 3941 659"
 xmlns:xlink="http://www.w3.org/1999/xlink"
 xmlns:xodm="http://www.corel.com/coreldraw/odm/2003">
 <defs>
  <style type="text/css">
   <![CDATA[
    .fil1 {fill:black;fill-rule:nonzero}
    .fil2 {fill:#0320FF;fill-rule:nonzero}
    .fil0 {fill:url(#id0)}
   ]]>
  </style>
  <linearGradient id="id0" gradientUnits="userSpaceOnUse" x1="2052.87" y1="255.85" x2="2608.63" y2="421.99">
   <stop offset="0" style="stop-opacity:1; stop-color:#0320FF"/>
   <stop offset="1" style="stop-opacity:1; stop-color:#0010A3"/>
  </linearGradient>
 </defs>
 <g id="Layer_x0020_1">
  <metadata id="CorelCorpID_0Corel-Layer"/>
  <g id="_1810796212224">
   <path class="fil0" d="M2457.13 550c35.38,-65.65 22.88,-87.41 29.15,-142.13 36.92,20.62 77.94,37.2 131.22,36.5l0.43 -112.68c-81.89,-4.26 -137.14,-61.13 -137.73,-137.9l-114.19 -1c0.68,91.17 -59.17,124.42 -137.08,139.83l0.1 111.06c35.54,4.52 81.62,-10.44 113.74,-26.64 9.34,-4.7 19.83,-13.11 29.43,-15.45 -1.24,34.65 3.86,56.6 -11.37,87.37 -23.56,47.58 -77.72,70.91 -127.91,55.07 -95.17,-30.04 -74.94,-137.81 -74.98,-214.87l0.07 -196.84 346 0.07 -0.06 88.31c23.61,34.32 63.44,56.57 113.18,59.37l0.02 -147.66 0.05 0 0.37 -113.11 -573.86 -0.58c3.75,88.24 -5.19,413.14 4.73,465.5 40.1,211.71 321.1,228.3 408.69,65.8z"/>
   <path class="fil1" d="M286.93 18.61c85.86,0 154.09,20.89 204.69,62.67 50.59,41.78 75.89,98.7 75.89,170.77 0,72.06 -25.3,128.98 -75.89,170.76 -50.6,41.78 -118.83,62.67 -204.69,62.67l-110.39 0 0 101.19c0,17.63 -6.33,32.78 -18.98,45.43 -12.65,12.65 -28.17,18.97 -46.57,18.97l-113.84 0 0 -632.46 289.78 0zm-11.5 325.43c36.8,0 64.59,-7.86 83.37,-23.57 18.78,-15.72 28.17,-38.52 28.17,-68.42 0,-29.9 -9.39,-52.9 -28.17,-69 -18.78,-16.1 -46.57,-24.15 -83.37,-24.15l-212.74 0 113.85 47.15 0 138 98.89 0zm538.59 -192.04c167.12,0 250.69,75.51 250.69,226.54l0 272.54 -119.59 0c-11.5,0 -21.08,-4.02 -28.75,-12.07 -7.67,-8.05 -11.5,-17.82 -11.5,-29.32l0 -21.85c-25.3,47.53 -73.59,71.3 -144.89,71.3 -57.5,0 -102.35,-14.19 -134.54,-42.55 -32.2,-28.36 -48.3,-64.78 -48.3,-109.24 0,-46.77 17.82,-82.8 53.47,-108.09 35.65,-25.3 90.27,-37.95 163.87,-37.95l193.19 0c0,-3.07 -16.48,-7.48 -49.45,-13.22 -32.96,-5.75 -49.83,-9.78 -50.6,-12.07 -11.5,-35.26 -44.46,-52.9 -98.89,-52.9 -28.37,0 -56.73,5.37 -85.09,16.1 -14.57,6.13 -28.94,6.52 -43.12,1.15 -14.19,-5.37 -24.72,-14.95 -31.63,-28.75l-31.05 -62.09c27.6,-18.4 60.76,-32.58 99.47,-42.55 38.72,-9.97 77.62,-14.95 116.72,-14.95zm-5.75 397.88c42.93,0 70.91,-18.78 83.95,-56.35l0 -42.55 -73.6 0c-49.83,0 -74.74,16.48 -74.74,49.45 0,14.57 5.56,26.45 16.67,35.65 11.11,9.2 27.02,13.8 47.72,13.8zm494.89 109.24c-41.4,0 -81.83,-4.79 -121.31,-14.37 -39.48,-9.58 -71.49,-21.66 -96.02,-36.22l28.75 -66.7c6.13,-13.03 15.52,-22.43 28.17,-28.17 12.65,-5.75 25.49,-6.32 38.52,-1.72 41.4,16.1 83.56,24.15 126.5,24.15 51.36,0 77.04,-11.12 77.04,-33.35 0,-9.2 -5.17,-16.29 -15.52,-21.27 -10.35,-4.98 -24.15,-8.63 -41.4,-10.93 -17.25,-2.3 -36.22,-4.79 -56.92,-7.48 -20.7,-2.68 -41.2,-6.9 -61.52,-12.65 -20.32,-5.75 -39.1,-13.61 -56.35,-23.57 -17.25,-9.97 -31.05,-24.34 -41.4,-43.13 -10.35,-18.78 -15.52,-41.59 -15.52,-68.42 0,-47.53 21.08,-86.63 63.25,-117.29 42.17,-30.67 100.43,-46 174.79,-46 78.96,0 143.36,14.18 193.19,42.55l-28.75 65.54c-6.13,13.04 -15.91,22.43 -29.32,28.18 -13.42,5.75 -27.41,5.94 -41.98,0.57 -29.13,-9.2 -59.8,-13.8 -91.99,-13.8 -52.13,0 -78.2,11.11 -78.2,33.35 0,10.73 7.09,18.97 21.28,24.72 14.18,5.75 31.81,9.58 52.89,11.5 21.08,1.91 44.28,5.75 69.57,11.5 25.3,5.75 48.49,12.84 69.57,21.28 21.08,8.43 38.71,23 52.89,43.7 14.19,20.7 21.28,46.38 21.28,77.05 0,46.76 -21.08,85.29 -63.25,115.57 -42.16,30.28 -101.57,45.43 -178.24,45.43zm481.09 0c-41.4,0 -81.83,-4.79 -121.31,-14.37 -39.48,-9.58 -71.49,-21.66 -96.02,-36.22l28.75 -66.7c6.13,-13.03 15.52,-22.43 28.17,-28.17 12.65,-5.75 25.49,-6.32 38.52,-1.72 41.4,16.1 83.56,24.15 126.5,24.15 51.36,0 77.04,-11.12 77.04,-33.35 0,-9.2 -5.17,-16.29 -15.52,-21.27 -10.35,-4.98 -24.15,-8.63 -41.4,-10.93 -17.25,-2.3 -36.22,-4.79 -56.92,-7.48 -20.7,-2.68 -41.2,-6.9 -61.52,-12.65 -20.32,-5.75 -39.1,-13.61 -56.35,-23.57 -17.25,-9.97 -31.05,-24.34 -41.4,-43.13 -10.35,-18.78 -15.52,-41.59 -15.52,-68.42 0,-47.53 21.08,-86.63 63.25,-117.29 42.17,-30.67 100.43,-46 174.79,-46 78.96,0 143.36,14.18 193.19,42.55l-28.75 65.54c-6.13,13.04 -15.91,22.43 -29.32,28.18 -13.42,5.75 -27.41,5.94 -41.98,0.57 -29.13,-9.2 -59.8,-13.8 -91.99,-13.8 -52.13,0 -78.2,11.11 -78.2,33.35 0,10.73 7.09,18.97 21.28,24.72 14.18,5.75 31.81,9.58 52.89,11.5 21.08,1.91 44.28,5.75 69.57,11.5 25.3,5.75 48.49,12.84 69.57,21.28 21.08,8.43 38.71,23 52.89,43.7 14.19,20.7 21.28,46.38 21.28,77.05 0,46.76 -21.08,85.29 -63.25,115.57 -42.16,30.28 -101.57,45.43 -178.24,45.43z"/>
   <path class="fil1" d="M3181.82 406.14c0,2.3 -0.76,16.48 -2.3,42.55l-356.48 0c2.3,6.9 4.98,13.42 8.05,19.55 19.93,39.86 57.5,59.8 112.69,59.8 42.17,0 79.73,-14.18 112.69,-42.55l64.4 66.7c7.67,7.67 11.11,17.06 10.35,28.17 -0.77,11.11 -5.75,20.12 -14.95,27.02 -44.46,34.5 -103.88,51.75 -178.24,51.75 -85.86,0 -155.24,-23.77 -208.14,-71.3 -52.9,-47.53 -79.34,-108.48 -79.34,-182.84 0,-73.59 25.49,-134.16 76.47,-181.69 50.98,-47.53 115.19,-71.3 192.61,-71.3 75.13,0 137.61,22.81 187.44,68.42 49.83,45.61 74.74,107.52 74.74,185.71zm-355.33 -70.15c-0.76,2.3 -14.76,5.94 -41.97,10.93 -27.21,4.98 -40.82,9.01 -40.82,12.07l277.14 0c-4.6,-26.07 -15.72,-46.57 -33.35,-61.52 -17.63,-14.95 -39.86,-22.42 -66.7,-22.42 -46,0 -77.43,20.31 -94.3,60.94z"/>
   <path class="fil1" d="M3523.78 152.01c39.1,0 73.41,7.47 102.92,22.42 29.52,14.95 53.47,39.1 71.87,72.44 18.4,33.35 27.6,74.56 27.6,123.62l0 280.58 -172.49 0 0 -252.98c0,-66.7 -26.83,-100.05 -80.5,-100.05 -29.13,0 -52.7,9.58 -70.72,28.75 -18.02,19.17 -27.02,48.3 -27.02,87.4l0 169.04c0,18.4 -6.52,34.31 -19.55,47.72 -13.04,13.41 -29.13,20.12 -48.3,20.12l-103.49 0 0 -430.07c0,-16.87 5.94,-31.05 17.82,-42.55 11.88,-11.5 25.87,-17.25 41.97,-17.25l103.49 0 -65.54 110.39c32.2,-41.4 68.23,-71.68 108.09,-90.84 39.86,-19.17 77.81,-28.75 113.84,-28.75z"/>
   <path class="fil1" d="M3765.69 224.45l0 426.63 115 0c16.09,0 29.7,-5.37 40.82,-16.1 11.11,-10.73 16.67,-24.15 16.67,-40.25l0 -433.53 -109.25 0c-17.63,0 -32.58,6.13 -44.85,18.4 -12.26,12.27 -18.4,27.22 -18.4,44.85z"/>
   <path class="fil2" d="M3773.87 61.3l8.44 -61.43 108.39 14.9c15.17,2.09 27.3,8.91 36.39,20.46 9.09,11.56 12.59,24.92 10.5,40.09l-9.34 67.94 -102.96 -14.15c-16.61,-2.28 -29.91,-10 -39.88,-23.15 -9.97,-13.15 -13.82,-28.04 -11.54,-44.65z"/>
  </g>
 </g>
</svg>
